<svg width="25" height="22" viewBox="0 0 25 22" fill="none" xmlns="http://www.w3.org/2000/svg">
<path d="M22.6477 9.06096H4.74091L10.2216 2.47804C10.4779 2.1697 10.6012 1.77219 10.5644 1.37294C10.5276 0.973702 10.3337 0.605434 10.0254 0.349155C9.71703 0.0928761 9.31952 -0.0304207 8.92028 0.00638891C8.52103 0.0431985 8.15276 0.237099 7.89649 0.545435L0.347264 9.6045C0.296474 9.67656 0.251056 9.75225 0.211378 9.83098C0.211378 9.90647 0.211378 9.95177 0.105689 10.0273C0.0372534 10.2004 0.00142095 10.3847 0 10.5708C0.00142095 10.7569 0.0372534 10.9412 0.105689 11.1143C0.105689 11.1898 0.105689 11.2351 0.211378 11.3106C0.251056 11.3893 0.296474 11.465 0.347264 11.5371L7.89649 20.5962C8.03845 20.7666 8.21621 20.9037 8.41715 20.9976C8.61809 21.0916 8.83725 21.1401 9.05907 21.1397C9.41185 21.1404 9.75373 21.0175 10.0254 20.7924C10.1783 20.6657 10.3046 20.51 10.3973 20.3344C10.4899 20.1587 10.547 19.9665 10.5652 19.7687C10.5834 19.571 10.5625 19.3716 10.5035 19.1819C10.4446 18.9923 10.3488 18.8161 10.2216 18.6636L4.74091 12.0806H22.6477C23.0481 12.0806 23.4321 11.9216 23.7153 11.6384C23.9984 11.3553 24.1575 10.9712 24.1575 10.5708C24.1575 10.1704 23.9984 9.78633 23.7153 9.50318C23.4321 9.22003 23.0481 9.06096 22.6477 9.06096Z" fill="#231F20"/>
</svg>
