<svg width="24" height="12" viewBox="0 0 24 12" fill="none" xmlns="http://www.w3.org/2000/svg">
<path d="M23.9999 1.99107C24.0008 2.24723 23.9442 2.50032 23.8345 2.73175C23.7247 2.96319 23.5645 3.16708 23.3657 3.32846L13.0809 11.6099C12.7742 11.8621 12.3895 12 11.9924 12C11.5954 12 11.2107 11.8621 10.904 11.6099L0.619231 3.03698C0.269178 2.74595 0.0490432 2.32773 0.00725331 1.87435C-0.0345366 1.42097 0.105442 0.969546 0.396395 0.619398C0.687348 0.269249 1.10544 0.049057 1.5587 0.00725555C2.01196 -0.0345459 2.46326 0.105468 2.81331 0.396501L12.001 8.06074L21.1887 0.653692C21.4403 0.444026 21.7467 0.310841 22.0716 0.269897C22.3965 0.228953 22.7264 0.281963 23.0221 0.422656C23.3178 0.563349 23.5671 0.785835 23.7404 1.06379C23.9137 1.34174 24.0037 1.66353 23.9999 1.99107Z" fill="black"/>
</svg>
