<svg width="12" height="24" viewBox="0 0 12 24" fill="none" xmlns="http://www.w3.org/2000/svg">
<path d="M10.0089 23.9999C9.75278 24.0007 9.49968 23.9442 9.26825 23.8345C9.03681 23.7247 8.83292 23.5645 8.67154 23.3657L0.39005 13.0809C0.137865 12.7742 0 12.3895 0 11.9924C0 11.5954 0.137865 11.2107 0.39005 10.904L8.96302 0.619228C9.25405 0.269176 9.67227 0.0490407 10.1256 0.00725086C10.579 -0.034539 11.0305 0.10544 11.3806 0.396393C11.7308 0.687346 11.9509 1.10544 11.9927 1.5587C12.0345 2.01196 11.8945 2.46325 11.6035 2.81331L3.93926 12.001L11.3463 21.1887C11.556 21.4403 11.6892 21.7467 11.7301 22.0716C11.771 22.3965 11.718 22.7264 11.5773 23.0221C11.4367 23.3178 11.2142 23.5671 10.9362 23.7404C10.6583 23.9136 10.3365 24.0037 10.0089 23.9999Z" fill="#231F20"/>
</svg>
